<svg width="270" height="58" viewBox="0 0 270 58" fill="none" xmlns="http://www.w3.org/2000/svg">
<path d="M268.987 17.2775C269.128 18.8861 268.43 20.5913 266.838 22.384C265.245 24.1768 262.798 26.0098 259.556 27.8502C253.073 31.5295 243.514 35.1811 231.567 38.5952C207.68 45.4212 174.347 51.2703 137.231 54.5175C100.116 57.7647 66.2726 57.7928 41.5638 55.2184C29.2052 53.9307 19.1576 51.9944 12.1345 49.4968C8.62135 48.2474 5.89326 46.8672 4.0139 45.3781C2.13454 43.8891 1.15123 42.331 1.0105 40.7224C0.869766 39.1139 1.56758 37.4087 3.15982 35.6159C4.75206 33.8232 7.19904 31.9902 10.4418 30.1498C16.9246 26.4705 26.4832 22.8189 38.4305 19.4048C62.3169 12.5788 95.6506 6.72966 132.766 3.48247C169.882 0.235277 203.725 0.20717 228.434 2.78164C240.792 4.06931 250.84 6.00556 257.863 8.50324C261.376 9.75264 264.104 11.1328 265.983 12.6219C267.863 14.1109 268.846 15.669 268.987 17.2775Z" stroke="#CEB691"/>
</svg>
