<svg width="122" height="40" viewBox="0 0 122 40" fill="none" xmlns="http://www.w3.org/2000/svg">
<path id="Ellipse 2" d="M121.05 25.2537C120.849 27.5528 119.112 29.7061 115.909 31.6055C112.719 33.4975 108.171 35.0755 102.574 36.2536C91.3861 38.6086 76.1203 39.3424 59.4353 37.8826C42.7503 36.4229 27.8439 33.0494 17.235 28.7874C11.9275 26.6552 7.72297 24.3115 4.90954 21.8943C2.0849 19.4675 0.748417 17.0453 0.94956 14.7463C1.1507 12.4472 2.88749 10.2939 6.09063 8.39443C9.28106 6.50251 13.8286 4.9245 19.4258 3.74635C30.6136 1.39139 45.8793 0.657573 62.5644 2.11732C79.2494 3.57707 94.1558 6.95061 104.765 11.2125C110.072 13.3447 114.277 15.6884 117.09 18.1056C119.915 20.5324 121.251 22.9546 121.05 25.2537Z" stroke="#CEB691"/>
</svg>
